<?xml version="1.0" encoding="utf-8"?>
<!-- Generator: Adobe Illustrator 19.2.1, SVG Export Plug-In . SVG Version: 6.00 Build 0)  -->
<svg version="1.1" id="layer" xmlns="http://www.w3.org/2000/svg" xmlns:xlink="http://www.w3.org/1999/xlink" x="0px" y="0px"
	 viewBox="0 0 652 652" style="enable-background:new 0 0 652 652;" xml:space="preserve">
<style type="text/css">
	.st0{fill:#D41E14;}
</style>
<path class="st0" d="M569.1,394.3c0-14.5,11.9-26.1,26.4-26.1c14.5,0,26.4,11.6,26.4,26.1s-11.9,26.1-26.4,26.1
	C580.7,420.4,569.1,408.8,569.1,394.3L569.1,394.3z M621.6,354.4h-49.9V227.8h49.9V354.4z M244,225.6v44.6h-42.4v22.9v0.9h38.6v46.8
	h-38.6v1.3v21.7v1.3H244v49.3h-91.4V225.6H244z M304,365.1h30.2v49.3h-80.4V225.6H304C304,225.6,304,365.4,304,365.1L304,365.1z
	 M71.5,292.6h19.8v-66.9h49v188.5H91.6l0.3-70.1l-19.8,0.3v69.7H21.9V225.6h49.6V292.6z M397.3,365.1h30.2v49.3c0-0.3-80.4,0-80.4,0
	V225.6h50.3C397.3,225.6,397.3,365.4,397.3,365.1L397.3,365.1z M550.9,245.7c5,6.6,6.9,18.2,7.2,28.6l-0.3,83.9
	c-0.6,22-13.2,45.5-32.4,53.1c-19.2,9.1-49.3,7.5-66.3-5.3c-14.8-11.3-22.3-27.6-22.9-45.9v-93.3c1.3-13.2,8.2-27.6,18.5-33.9
	c7.9-5.3,16.6-8.5,26.1-9.1C501,221.2,536.1,220.9,550.9,245.7L550.9,245.7z M504.4,269.9c-2.8-2.8-7.2-2.8-10.7-1.9
	c-3.1,1.3-5.3,4.4-5.7,7.5v82.3c0.6,3.5,3.1,6.3,6.3,7.5c2.5,0.9,5.3,0.6,7.9-0.3c2.5-1.9,5-3.1,5-8.2v-81.4
	C506.9,273.1,505.7,271.5,504.4,269.9L504.4,269.9z"/>
</svg>
